<svg xmlns="http://www.w3.org/2000/svg" xmlns:xlink="http://www.w3.org/1999/xlink" width="500" viewBox="0 0 375 374.999991" height="500" preserveAspectRatio="xMidYMid meet"><defs><g></g><clipPath id="97a5f740ab"><path d="M 135 136 L 227 136 L 227 211.917969 L 135 211.917969 Z M 135 136 " clip-rule="nonzero"></path></clipPath><clipPath id="4f30a8a0ab"><path d="M 124.277344 126 L 166 126 L 166 175 L 124.277344 175 Z M 124.277344 126 " clip-rule="nonzero"></path></clipPath><clipPath id="66fcf342f4"><path d="M 187 86.667969 L 202 86.667969 L 202 101 L 187 101 Z M 187 86.667969 " clip-rule="nonzero"></path></clipPath></defs><path fill="#ffffff" d="M 223.699219 184.613281 C 221.691406 187.40625 218.03125 187.9375 215.523438 185.796875 C 218.03125 187.9375 218.433594 191.9375 216.425781 194.730469 C 214.421875 197.523438 210.761719 198.054688 208.253906 195.914062 L 205.675781 193.714844 C 207.054688 194.894531 207.800781 196.640625 207.851562 198.4375 C 207.894531 199.898438 207.476562 201.394531 206.578125 202.648438 C 204.570312 205.441406 200.910156 205.972656 198.402344 203.832031 L 193.722656 199.832031 C 195.105469 201.015625 195.847656 202.757812 195.898438 204.558594 C 195.941406 206.019531 195.667969 206.953125 194.773438 208.171875 C 193.5625 209.824219 190.722656 211.914062 187.597656 209.578125 L 136.703125 167.921875 C 137.1875 167.691406 137.625 167.332031 137.972656 166.847656 L 156.796875 140.644531 C 157.898438 139.113281 159.035156 138.011719 159.035156 138.011719 C 159.890625 137.863281 161.308594 138.703125 163.648438 138.679688 C 170.300781 138.617188 185.074219 138.65625 190.308594 141.976562 C 192.066406 143.09375 219.214844 172.667969 219.214844 172.667969 L 222.792969 175.679688 C 225.300781 177.816406 225.707031 181.816406 223.699219 184.613281 Z M 223.699219 184.613281 " fill-opacity="1" fill-rule="nonzero"></path><g clip-path="url(#97a5f740ab)"><path fill="#1c0c91" d="M 190.457031 211.6875 C 189.25 211.6875 188.074219 211.269531 186.957031 210.433594 C 186.945312 210.421875 186.933594 210.414062 186.921875 210.402344 L 136.027344 168.746094 C 135.742188 168.515625 135.597656 168.15625 135.644531 167.792969 C 135.6875 167.429688 135.914062 167.117188 136.246094 166.957031 C 136.582031 166.796875 136.871094 166.550781 137.105469 166.226562 L 155.929688 140.023438 C 157.074219 138.433594 158.238281 137.292969 158.289062 137.246094 C 158.445312 137.097656 158.640625 136.996094 158.851562 136.960938 C 159.449219 136.855469 160.058594 137.011719 160.765625 137.191406 C 161.519531 137.386719 162.457031 137.625 163.640625 137.613281 C 167.164062 137.578125 172.449219 137.582031 177.59375 137.996094 C 180.492188 138.230469 183.015625 138.570312 185.089844 139.007812 C 187.640625 139.546875 189.535156 140.222656 190.882812 141.078125 C 191.214844 141.289062 192.097656 141.847656 206.203125 157.015625 C 212.832031 164.140625 219.34375 171.226562 219.957031 171.894531 L 223.484375 174.863281 C 223.484375 174.863281 223.488281 174.863281 223.488281 174.867188 C 224.910156 176.082031 225.804688 177.832031 226.003906 179.792969 C 226.199219 181.738281 225.691406 183.671875 224.566406 185.234375 C 223.976562 186.054688 223.253906 186.726562 222.417969 187.226562 C 221.605469 187.714844 220.722656 188.019531 219.800781 188.132812 C 219.308594 188.191406 218.824219 188.195312 218.347656 188.144531 C 218.539062 188.707031 218.671875 189.296875 218.734375 189.910156 C 218.929688 191.859375 218.417969 193.789062 217.296875 195.351562 C 216.707031 196.175781 215.984375 196.84375 215.148438 197.34375 C 214.335938 197.832031 213.453125 198.136719 212.53125 198.25 C 211.25 198.40625 209.984375 198.175781 208.855469 197.597656 C 208.890625 197.863281 208.914062 198.132812 208.921875 198.40625 C 208.96875 200.148438 208.445312 201.875 207.445312 203.269531 C 206.855469 204.089844 206.132812 204.761719 205.300781 205.261719 C 204.484375 205.75 203.605469 206.054688 202.679688 206.164062 C 200.878906 206.382812 199.113281 205.839844 197.710938 204.640625 L 196.933594 203.980469 C 196.953125 204.160156 196.964844 204.34375 196.96875 204.527344 C 197.019531 206.253906 196.65625 207.414062 195.636719 208.804688 C 195.214844 209.375 193.65625 211.269531 191.238281 211.628906 C 190.976562 211.667969 190.714844 211.6875 190.457031 211.6875 Z M 188.257812 208.738281 C 189.136719 209.390625 190.035156 209.652344 190.925781 209.519531 C 192.195312 209.332031 193.300781 208.375 193.910156 207.542969 C 194.652344 206.535156 194.867188 205.84375 194.832031 204.585938 C 194.785156 203.023438 194.128906 201.585938 193.027344 200.644531 C 192.578125 200.261719 192.527344 199.585938 192.910156 199.140625 C 193.292969 198.691406 193.96875 198.640625 194.417969 199.023438 C 194.417969 199.023438 194.421875 199.027344 194.421875 199.027344 L 199.097656 203.019531 C 200.042969 203.828125 201.226562 204.191406 202.421875 204.046875 C 203.71875 203.890625 204.882812 203.171875 205.707031 202.023438 C 206.4375 201.007812 206.820312 199.746094 206.785156 198.46875 C 206.738281 196.902344 206.082031 195.464844 204.980469 194.523438 C 204.53125 194.140625 204.476562 193.46875 204.863281 193.019531 C 205.246094 192.570312 205.921875 192.519531 206.371094 192.902344 C 206.371094 192.902344 206.375 192.90625 206.375 192.90625 L 208.949219 195.105469 C 209.894531 195.910156 211.074219 196.277344 212.273438 196.128906 C 213.566406 195.972656 214.734375 195.257812 215.558594 194.109375 C 217.246094 191.757812 216.921875 188.394531 214.828125 186.609375 C 214.582031 186.398438 214.457031 186.097656 214.457031 185.796875 C 214.457031 185.550781 214.539062 185.304688 214.710938 185.105469 C 215.097656 184.65625 215.769531 184.601562 216.21875 184.988281 C 217.164062 185.792969 218.34375 186.15625 219.542969 186.011719 C 220.835938 185.855469 222.003906 185.136719 222.828125 183.988281 C 224.515625 181.640625 224.191406 178.277344 222.101562 176.492188 L 218.527344 173.484375 C 218.492188 173.453125 218.457031 173.421875 218.425781 173.386719 C 218.359375 173.3125 211.636719 165.992188 204.75 158.589844 C 192.28125 145.183594 190.089844 143.128906 189.726562 142.875 C 188.617188 142.171875 186.910156 141.574219 184.648438 141.097656 C 182.660156 140.675781 180.230469 140.347656 177.421875 140.125 C 172.363281 139.714844 167.144531 139.714844 163.660156 139.75 C 162.195312 139.761719 161.0625 139.472656 160.234375 139.261719 C 159.996094 139.199219 159.699219 139.125 159.480469 139.085938 C 159.085938 139.5 158.367188 140.296875 157.667969 141.269531 L 138.84375 167.46875 C 138.71875 167.644531 138.582031 167.808594 138.4375 167.960938 Z M 223.699219 184.613281 Z M 189.730469 142.878906 C 189.734375 142.878906 189.734375 142.878906 189.734375 142.878906 C 189.734375 142.878906 189.734375 142.878906 189.730469 142.878906 Z M 189.730469 142.878906 " fill-opacity="1" fill-rule="nonzero"></path></g><path fill="#1c0c91" d="M 215.523438 186.863281 C 215.285156 186.863281 215.046875 186.785156 214.851562 186.625 L 204.847656 178.5 C 204.390625 178.128906 204.320312 177.457031 204.695312 177 C 205.066406 176.542969 205.738281 176.472656 206.199219 176.84375 L 216.199219 184.96875 C 216.65625 185.34375 216.726562 186.015625 216.355469 186.472656 C 216.140625 186.730469 215.835938 186.863281 215.523438 186.863281 Z M 215.523438 186.863281 " fill-opacity="1" fill-rule="nonzero"></path><path fill="#1c0c91" d="M 205.671875 194.78125 C 205.429688 194.78125 205.183594 194.695312 204.980469 194.523438 L 197.300781 187.984375 C 196.851562 187.601562 196.796875 186.929688 197.179688 186.480469 C 197.566406 186.03125 198.238281 185.980469 198.6875 186.363281 L 206.367188 192.902344 C 206.816406 193.285156 206.871094 193.957031 206.488281 194.40625 C 206.277344 194.652344 205.976562 194.78125 205.671875 194.78125 Z M 205.671875 194.78125 " fill-opacity="1" fill-rule="nonzero"></path><path fill="#1c0c91" d="M 193.722656 200.898438 C 193.453125 200.898438 193.183594 200.800781 192.976562 200.597656 L 191.25 198.914062 C 190.828125 198.5 190.820312 197.824219 191.234375 197.40625 C 191.648438 196.984375 192.324219 196.976562 192.746094 197.386719 L 194.46875 199.070312 C 194.890625 199.480469 194.898438 200.15625 194.488281 200.578125 C 194.277344 200.792969 194 200.898438 193.722656 200.898438 Z M 193.722656 200.898438 " fill-opacity="1" fill-rule="nonzero"></path><path fill="#51eded" d="M 149.414062 127.699219 L 163.296875 136.777344 C 164.921875 138.007812 165.28125 140.398438 164.097656 142.113281 L 143.871094 171.488281 C 142.6875 173.207031 140.414062 173.601562 138.789062 172.371094 L 125.480469 162.277344 Z M 149.414062 127.699219 " fill-opacity="1" fill-rule="nonzero"></path><g clip-path="url(#4f30a8a0ab)"><path fill="#1c0c91" d="M 140.894531 174.15625 C 139.90625 174.15625 138.953125 173.832031 138.144531 173.21875 L 124.832031 163.128906 C 124.378906 162.78125 124.273438 162.140625 124.601562 161.671875 L 148.535156 127.09375 C 148.863281 126.617188 149.515625 126.488281 150 126.808594 L 163.882812 135.882812 C 163.90625 135.898438 163.925781 135.914062 163.945312 135.925781 C 164.953125 136.691406 165.617188 137.820312 165.808594 139.105469 C 166 140.382812 165.703125 141.664062 164.976562 142.71875 L 144.75 172.09375 C 144.003906 173.179688 142.890625 173.890625 141.621094 174.097656 C 141.378906 174.136719 141.136719 174.15625 140.894531 174.15625 Z M 126.941406 162.046875 L 139.4375 171.519531 C 139.972656 171.925781 140.628906 172.09375 141.28125 171.988281 C 141.96875 171.878906 142.574219 171.488281 142.988281 170.886719 L 163.214844 141.511719 C 164.070312 140.269531 163.828125 138.542969 162.679688 137.648438 L 149.699219 129.164062 Z M 126.941406 162.046875 " fill-opacity="1" fill-rule="nonzero"></path></g><path fill="#ffffff" d="M 210.214844 140.246094 C 209.214844 140.003906 204.859375 139.273438 202.070312 139.023438 C 194.742188 138.363281 189.425781 139.578125 183.433594 142.214844 L 165.625 150.703125 C 162.324219 152.652344 161.234375 156.902344 163.1875 160.195312 L 163.191406 160.199219 C 165.144531 163.492188 169.398438 164.582031 172.699219 162.632812 L 193.875 152.15625 L 226.429688 178.3125 L 233.46875 174.773438 Z M 210.214844 140.246094 " fill-opacity="1" fill-rule="nonzero"></path><path fill="#1c0c91" d="M 226.429688 179.378906 C 226.191406 179.378906 225.953125 179.300781 225.757812 179.144531 L 193.738281 153.414062 L 173.210938 163.574219 C 171.375 164.644531 169.234375 164.941406 167.175781 164.417969 C 165.101562 163.886719 163.359375 162.582031 162.269531 160.746094 C 162.265625 160.734375 162.257812 160.726562 162.253906 160.714844 C 161.175781 158.882812 160.871094 156.738281 161.402344 154.679688 C 161.933594 152.609375 163.238281 150.871094 165.078125 149.785156 C 165.105469 149.769531 165.136719 149.753906 165.164062 149.738281 L 182.972656 141.25 C 182.980469 141.246094 182.992188 141.242188 183 141.238281 C 186.300781 139.785156 189.179688 138.863281 192.058594 138.332031 C 195.207031 137.753906 198.515625 137.632812 202.164062 137.960938 C 204.898438 138.207031 209.351562 138.9375 210.46875 139.207031 C 211.042969 139.347656 211.394531 139.921875 211.253906 140.496094 C 211.117188 141.070312 210.539062 141.421875 209.964844 141.28125 C 209.050781 141.0625 204.71875 140.332031 201.972656 140.085938 C 195.371094 139.492188 190.296875 140.359375 183.878906 143.183594 L 166.128906 151.644531 C 164.800781 152.445312 163.859375 153.707031 163.472656 155.210938 C 163.082031 156.726562 163.308594 158.304688 164.105469 159.648438 C 164.113281 159.660156 164.117188 159.667969 164.121094 159.675781 C 165.777344 162.441406 169.375 163.355469 172.15625 161.714844 C 172.179688 161.703125 172.203125 161.6875 172.226562 161.675781 L 193.402344 151.199219 C 193.773438 151.011719 194.222656 151.0625 194.546875 151.324219 L 226.5625 177.050781 L 232.988281 173.820312 C 233.515625 173.554688 234.15625 173.765625 234.421875 174.292969 C 234.6875 174.816406 234.476562 175.460938 233.949219 175.722656 L 226.910156 179.265625 C 226.757812 179.34375 226.59375 179.378906 226.429688 179.378906 Z M 226.429688 179.378906 " fill-opacity="1" fill-rule="nonzero"></path><path fill="#ffffff" d="M 178.386719 194.945312 C 180.671875 192.945312 184.09375 193.242188 186.03125 195.609375 C 187.96875 197.976562 187.683594 201.515625 185.398438 203.515625 L 180.0625 207.746094 C 177.855469 208.960938 175.054688 208.464844 173.375 206.410156 C 172.53125 205.382812 172.105469 204.128906 172.089844 202.878906 C 172.0625 201.257812 172.714844 199.636719 174.007812 198.507812 Z M 178.386719 194.945312 " fill-opacity="1" fill-rule="nonzero"></path><path fill="#1c0c91" d="M 177.519531 209.46875 C 177.117188 209.46875 176.714844 209.429688 176.320312 209.351562 C 174.851562 209.070312 173.511719 208.265625 172.546875 207.085938 C 171.585938 205.914062 171.042969 204.421875 171.019531 202.894531 C 170.988281 200.890625 171.820312 199 173.304688 197.703125 C 173.316406 197.695312 173.324219 197.6875 173.332031 197.679688 L 177.695312 194.128906 C 179.011719 192.984375 180.6875 192.429688 182.410156 192.574219 C 184.152344 192.71875 185.734375 193.558594 186.859375 194.933594 C 187.972656 196.292969 188.507812 198.015625 188.363281 199.785156 C 188.222656 201.554688 187.417969 203.164062 186.101562 204.316406 C 186.089844 204.328125 186.078125 204.339844 186.0625 204.347656 L 180.726562 208.582031 C 180.679688 208.621094 180.632812 208.652344 180.578125 208.683594 C 179.636719 209.199219 178.582031 209.46875 177.519531 209.46875 Z M 174.699219 199.320312 C 173.699219 200.203125 173.136719 201.492188 173.15625 202.859375 C 173.171875 203.910156 173.542969 204.933594 174.203125 205.734375 C 175.496094 207.320312 177.703125 207.78125 179.472656 206.851562 L 184.710938 202.695312 C 186.550781 201.070312 186.773438 198.199219 185.207031 196.285156 C 184.449219 195.359375 183.390625 194.796875 182.230469 194.703125 C 181.085938 194.605469 179.96875 194.976562 179.089844 195.746094 C 179.082031 195.757812 179.070312 195.765625 179.0625 195.773438 Z M 178.386719 194.945312 Z M 178.386719 194.945312 " fill-opacity="1" fill-rule="nonzero"></path><path fill="#ffffff" d="M 159.886719 181.796875 C 161.179688 180.667969 161.832031 179.046875 161.808594 177.425781 C 161.789062 176.171875 161.363281 174.921875 160.523438 173.890625 C 158.839844 171.835938 156.039062 171.34375 153.832031 172.558594 L 146.339844 178.589844 C 144.054688 180.589844 143.769531 184.128906 145.707031 186.496094 C 147.640625 188.863281 151.066406 189.160156 153.355469 187.160156 Z M 159.886719 181.796875 " fill-opacity="1" fill-rule="nonzero"></path><path fill="#1c0c91" d="M 149.863281 189.554688 C 149.6875 189.554688 149.507812 189.546875 149.328125 189.53125 C 147.585938 189.386719 146.003906 188.546875 144.878906 187.171875 C 143.765625 185.8125 143.230469 184.089844 143.375 182.320312 C 143.515625 180.550781 144.320312 178.941406 145.636719 177.789062 C 145.648438 177.777344 145.660156 177.769531 145.667969 177.761719 L 153.160156 171.726562 C 153.207031 171.6875 153.261719 171.652344 153.316406 171.621094 C 154.609375 170.910156 156.125 170.667969 157.574219 170.949219 C 159.046875 171.230469 160.386719 172.039062 161.351562 173.214844 C 162.3125 174.390625 162.855469 175.878906 162.878906 177.40625 C 162.910156 179.410156 162.074219 181.304688 160.589844 182.597656 C 160.582031 182.605469 160.574219 182.613281 160.566406 182.621094 L 154.046875 187.976562 C 152.863281 189.003906 151.398438 189.554688 149.863281 189.554688 Z M 147.03125 179.40625 C 145.191406 181.03125 144.964844 183.90625 146.535156 185.820312 C 147.289062 186.746094 148.347656 187.308594 149.507812 187.402344 C 150.652344 187.5 151.769531 187.128906 152.648438 186.359375 C 152.65625 186.351562 152.667969 186.34375 152.675781 186.335938 L 159.195312 180.980469 C 160.199219 180.101562 160.761719 178.8125 160.738281 177.441406 C 160.722656 176.390625 160.351562 175.371094 159.695312 174.566406 C 158.398438 172.984375 156.199219 172.523438 154.425781 173.449219 Z M 159.886719 181.796875 Z M 159.886719 181.796875 " fill-opacity="1" fill-rule="nonzero"></path><path fill="#ffffff" d="M 171.171875 186.628906 L 173.527344 184.570312 C 175.816406 182.574219 179.238281 182.871094 181.175781 185.238281 C 183.113281 187.605469 182.828125 191.140625 180.542969 193.144531 L 174.007812 198.507812 L 169.734375 202.242188 C 167.449219 204.238281 164.023438 203.945312 162.085938 201.578125 C 161.242188 200.546875 160.820312 199.292969 160.800781 198.042969 C 160.777344 196.421875 161.429688 194.800781 162.722656 193.671875 Z M 171.171875 186.628906 " fill-opacity="1" fill-rule="nonzero"></path><path fill="#1c0c91" d="M 166.246094 204.632812 C 166.066406 204.632812 165.886719 204.625 165.710938 204.609375 C 163.964844 204.464844 162.386719 203.628906 161.257812 202.25 C 160.296875 201.078125 159.757812 199.589844 159.734375 198.0625 C 159.703125 196.058594 160.535156 194.164062 162.015625 192.867188 C 162.023438 192.863281 162.03125 192.859375 162.035156 192.851562 L 170.476562 185.820312 L 172.824219 183.769531 C 174.144531 182.613281 175.824219 182.058594 177.554688 182.203125 C 179.296875 182.347656 180.878906 183.1875 182.003906 184.5625 C 183.117188 185.921875 183.652344 187.644531 183.507812 189.414062 C 183.367188 191.183594 182.5625 192.792969 181.246094 193.945312 C 181.238281 193.953125 181.230469 193.960938 181.222656 193.96875 L 174.699219 199.320312 L 170.4375 203.042969 C 169.253906 204.078125 167.78125 204.632812 166.246094 204.632812 Z M 163.417969 194.484375 C 162.414062 195.363281 161.851562 196.65625 161.871094 198.027344 C 161.886719 199.078125 162.257812 200.097656 162.914062 200.902344 C 163.671875 201.824219 164.726562 202.386719 165.886719 202.484375 C 167.035156 202.578125 168.148438 202.207031 169.03125 201.4375 L 173.304688 197.703125 C 173.3125 197.695312 173.320312 197.691406 173.328125 197.683594 L 179.847656 192.328125 C 181.691406 190.707031 181.917969 187.832031 180.347656 185.910156 C 179.59375 184.988281 178.535156 184.425781 177.375 184.328125 C 176.230469 184.234375 175.113281 184.605469 174.230469 185.375 L 171.878906 187.433594 C 171.871094 187.4375 171.863281 187.445312 171.859375 187.449219 Z M 171.171875 186.628906 Z M 171.171875 186.628906 " fill-opacity="1" fill-rule="nonzero"></path><path fill="#ffffff" d="M 159.886719 181.796875 L 164.160156 178.0625 C 166.449219 176.0625 169.871094 176.359375 171.808594 178.726562 C 172.652344 179.753906 173.074219 181.007812 173.09375 182.257812 C 173.117188 183.878906 172.464844 185.503906 171.171875 186.628906 L 162.722656 193.671875 L 160.367188 195.730469 C 158.082031 197.730469 154.65625 197.429688 152.71875 195.066406 C 150.78125 192.699219 151.066406 189.160156 153.355469 187.160156 Z M 159.886719 181.796875 " fill-opacity="1" fill-rule="nonzero"></path><path fill="#1c0c91" d="M 156.878906 198.121094 C 156.699219 198.121094 156.523438 198.113281 156.34375 198.097656 C 154.601562 197.953125 153.019531 197.117188 151.890625 195.742188 C 150.78125 194.382812 150.246094 192.660156 150.386719 190.890625 C 150.53125 189.117188 151.332031 187.507812 152.648438 186.359375 C 152.660156 186.351562 152.667969 186.34375 152.675781 186.335938 L 159.195312 180.980469 L 163.457031 177.257812 C 164.777344 176.105469 166.457031 175.546875 168.1875 175.691406 C 169.929688 175.835938 171.511719 176.675781 172.636719 178.050781 C 173.597656 179.226562 174.140625 180.714844 174.164062 182.242188 C 174.195312 184.246094 173.359375 186.140625 171.875 187.433594 C 171.871094 187.4375 171.863281 187.445312 171.859375 187.449219 L 163.417969 194.484375 L 161.070312 196.53125 C 159.886719 197.566406 158.414062 198.121094 156.878906 198.121094 Z M 154.046875 187.972656 C 152.203125 189.597656 151.976562 192.472656 153.546875 194.390625 C 154.304688 195.3125 155.359375 195.875 156.519531 195.972656 C 157.667969 196.066406 158.78125 195.695312 159.664062 194.925781 L 162.015625 192.871094 C 162.023438 192.863281 162.03125 192.859375 162.035156 192.851562 L 170.476562 185.820312 C 171.480469 184.9375 172.046875 183.648438 172.023438 182.277344 C 172.007812 181.226562 171.636719 180.203125 170.980469 179.402344 C 170.222656 178.476562 169.167969 177.914062 168.007812 177.820312 C 166.863281 177.722656 165.746094 178.09375 164.863281 178.863281 L 160.589844 182.597656 C 160.582031 182.605469 160.574219 182.613281 160.566406 182.621094 Z M 159.886719 181.796875 Z M 159.886719 181.796875 " fill-opacity="1" fill-rule="nonzero"></path><path fill="#ffffff" d="M 159.886719 181.796875 L 153.355469 187.160156 Z M 159.886719 181.796875 " fill-opacity="1" fill-rule="nonzero"></path><path fill="#1c0c91" d="M 153.355469 188.230469 C 153.046875 188.230469 152.738281 188.097656 152.527344 187.839844 C 152.152344 187.382812 152.21875 186.710938 152.675781 186.335938 L 159.207031 180.972656 C 159.664062 180.597656 160.335938 180.664062 160.710938 181.117188 C 161.085938 181.574219 161.023438 182.246094 160.566406 182.621094 L 154.035156 187.984375 C 153.835938 188.148438 153.59375 188.230469 153.355469 188.230469 Z M 153.355469 188.230469 " fill-opacity="1" fill-rule="nonzero"></path><path fill="#ffd45a" d="M 249.804688 167.597656 L 234.886719 176.230469 C 233.070312 177.28125 230.703125 176.601562 229.605469 174.710938 L 210.816406 142.359375 C 209.71875 140.46875 210.300781 138.082031 212.121094 137.027344 L 227.113281 127.679688 Z M 249.804688 167.597656 " fill-opacity="1" fill-rule="nonzero"></path><path fill="#1c0c91" d="M 233.042969 177.792969 C 232.589844 177.792969 232.132812 177.730469 231.679688 177.601562 C 230.417969 177.238281 229.351562 176.402344 228.679688 175.246094 L 209.890625 142.894531 C 208.5 140.503906 209.253906 137.464844 211.566406 136.113281 L 226.546875 126.773438 C 226.796875 126.617188 227.09375 126.570312 227.375 126.644531 C 227.660156 126.714844 227.902344 126.898438 228.042969 127.152344 L 250.734375 167.070312 C 251.023438 167.582031 250.847656 168.226562 250.339844 168.523438 L 235.425781 177.152344 C 234.691406 177.578125 233.875 177.792969 233.042969 177.792969 Z M 226.734375 129.171875 L 212.6875 137.933594 C 212.675781 137.941406 212.667969 137.945312 212.65625 137.953125 C 211.351562 138.707031 210.9375 140.445312 211.738281 141.824219 L 230.53125 174.175781 C 230.921875 174.851562 231.542969 175.339844 232.273438 175.550781 C 232.988281 175.753906 233.726562 175.667969 234.351562 175.304688 L 248.351562 167.207031 Z M 226.734375 129.171875 " fill-opacity="1" fill-rule="nonzero"></path><path fill="#1c0c91" d="M 184.851562 134.582031 C 184.261719 134.582031 183.78125 134.101562 183.78125 133.515625 L 183.78125 104.199219 L 171.429688 104.199219 C 170.839844 104.199219 170.359375 103.722656 170.359375 103.132812 C 170.359375 102.542969 170.839844 102.0625 171.429688 102.0625 L 184.851562 102.0625 C 185.441406 102.0625 185.921875 102.542969 185.921875 103.132812 L 185.921875 133.515625 C 185.921875 134.101562 185.441406 134.582031 184.851562 134.582031 Z M 184.851562 134.582031 " fill-opacity="1" fill-rule="nonzero"></path><path fill="#1c0c91" d="M 174.746094 134.582031 C 174.152344 134.582031 173.675781 134.101562 173.675781 133.515625 L 173.675781 119.015625 L 159.378906 119.015625 C 158.789062 119.015625 158.308594 118.539062 158.308594 117.949219 C 158.308594 117.359375 158.789062 116.882812 159.378906 116.882812 L 174.746094 116.882812 C 175.335938 116.882812 175.8125 117.359375 175.8125 117.949219 L 175.8125 133.515625 C 175.8125 134.101562 175.335938 134.582031 174.746094 134.582031 Z M 174.746094 134.582031 " fill-opacity="1" fill-rule="nonzero"></path><path fill="#1c0c91" d="M 204.199219 134.582031 C 203.609375 134.582031 203.128906 134.101562 203.128906 133.515625 L 203.128906 113.144531 C 203.128906 112.558594 203.609375 112.078125 204.199219 112.078125 L 218.425781 112.078125 C 219.015625 112.078125 219.496094 112.558594 219.496094 113.144531 C 219.496094 113.734375 219.015625 114.214844 218.425781 114.214844 L 205.269531 114.214844 L 205.269531 133.515625 C 205.269531 134.101562 204.789062 134.582031 204.199219 134.582031 Z M 204.199219 134.582031 " fill-opacity="1" fill-rule="nonzero"></path><path fill="#1c0c91" d="M 194.824219 134.582031 C 194.230469 134.582031 193.753906 134.101562 193.753906 133.515625 L 193.753906 96.40625 C 193.753906 95.816406 194.230469 95.335938 194.824219 95.335938 C 195.414062 95.335938 195.890625 95.816406 195.890625 96.40625 L 195.890625 133.515625 C 195.890625 134.101562 195.414062 134.582031 194.824219 134.582031 Z M 194.824219 134.582031 " fill-opacity="1" fill-rule="nonzero"></path><path fill="#51eded" d="M 165.402344 117.949219 C 165.402344 118.34375 165.367188 118.734375 165.289062 119.125 C 165.210938 119.511719 165.097656 119.886719 164.945312 120.25 C 164.792969 120.617188 164.609375 120.960938 164.386719 121.289062 C 164.167969 121.621094 163.917969 121.921875 163.640625 122.203125 C 163.359375 122.480469 163.054688 122.730469 162.726562 122.949219 C 162.398438 123.167969 162.050781 123.355469 161.683594 123.507812 C 161.320312 123.65625 160.941406 123.769531 160.554688 123.847656 C 160.167969 123.925781 159.773438 123.964844 159.378906 123.964844 C 158.984375 123.964844 158.589844 123.925781 158.203125 123.847656 C 157.816406 123.769531 157.4375 123.65625 157.074219 123.507812 C 156.707031 123.355469 156.359375 123.167969 156.03125 122.949219 C 155.703125 122.730469 155.398438 122.480469 155.117188 122.203125 C 154.839844 121.921875 154.589844 121.621094 154.371094 121.289062 C 154.148438 120.960938 153.964844 120.617188 153.8125 120.25 C 153.660156 119.886719 153.546875 119.511719 153.46875 119.125 C 153.394531 118.734375 153.355469 118.34375 153.355469 117.949219 C 153.355469 117.554688 153.394531 117.164062 153.46875 116.777344 C 153.546875 116.390625 153.660156 116.011719 153.8125 115.648438 C 153.964844 115.285156 154.148438 114.9375 154.371094 114.609375 C 154.589844 114.28125 154.839844 113.976562 155.117188 113.699219 C 155.398438 113.417969 155.703125 113.167969 156.03125 112.949219 C 156.359375 112.730469 156.707031 112.546875 157.074219 112.394531 C 157.4375 112.242188 157.816406 112.128906 158.203125 112.050781 C 158.589844 111.976562 158.984375 111.9375 159.378906 111.9375 C 159.773438 111.9375 160.167969 111.976562 160.554688 112.050781 C 160.941406 112.128906 161.320312 112.242188 161.683594 112.394531 C 162.050781 112.546875 162.398438 112.730469 162.726562 112.949219 C 163.054688 113.167969 163.359375 113.417969 163.640625 113.699219 C 163.917969 113.976562 164.167969 114.28125 164.386719 114.609375 C 164.609375 114.9375 164.792969 115.285156 164.945312 115.648438 C 165.097656 116.011719 165.210938 116.390625 165.289062 116.777344 C 165.367188 117.164062 165.402344 117.554688 165.402344 117.949219 Z M 165.402344 117.949219 " fill-opacity="1" fill-rule="nonzero"></path><path fill="#1c0c91" d="M 159.378906 125.03125 C 155.46875 125.03125 152.285156 121.855469 152.285156 117.949219 C 152.285156 114.046875 155.46875 110.867188 159.378906 110.867188 C 163.289062 110.867188 166.472656 114.046875 166.472656 117.949219 C 166.472656 121.855469 163.289062 125.03125 159.378906 125.03125 Z M 159.378906 113.003906 C 156.648438 113.003906 154.421875 115.222656 154.421875 117.949219 C 154.421875 120.675781 156.648438 122.894531 159.378906 122.894531 C 162.113281 122.894531 164.335938 120.675781 164.335938 117.949219 C 164.335938 115.222656 162.113281 113.003906 159.378906 113.003906 Z M 159.378906 113.003906 " fill-opacity="1" fill-rule="nonzero"></path><path fill="#ff9661" d="M 177.453125 103.132812 C 177.453125 103.527344 177.414062 103.917969 177.335938 104.304688 C 177.261719 104.691406 177.144531 105.066406 176.996094 105.433594 C 176.84375 105.796875 176.65625 106.144531 176.4375 106.472656 C 176.21875 106.800781 175.96875 107.105469 175.6875 107.382812 C 175.410156 107.664062 175.105469 107.914062 174.777344 108.132812 C 174.445312 108.351562 174.101562 108.535156 173.734375 108.6875 C 173.367188 108.839844 172.992188 108.953125 172.605469 109.03125 C 172.214844 109.105469 171.824219 109.144531 171.429688 109.144531 C 171.03125 109.144531 170.640625 109.105469 170.253906 109.03125 C 169.867188 108.953125 169.488281 108.839844 169.125 108.6875 C 168.757812 108.535156 168.410156 108.351562 168.082031 108.132812 C 167.753906 107.914062 167.449219 107.664062 167.167969 107.382812 C 166.890625 107.105469 166.640625 106.800781 166.417969 106.472656 C 166.199219 106.144531 166.015625 105.796875 165.863281 105.433594 C 165.710938 105.066406 165.597656 104.691406 165.519531 104.304688 C 165.441406 103.917969 165.402344 103.527344 165.402344 103.132812 C 165.402344 102.738281 165.441406 102.34375 165.519531 101.957031 C 165.597656 101.570312 165.710938 101.195312 165.863281 100.832031 C 166.015625 100.464844 166.199219 100.117188 166.417969 99.789062 C 166.640625 99.460938 166.890625 99.160156 167.167969 98.878906 C 167.449219 98.601562 167.753906 98.351562 168.082031 98.132812 C 168.410156 97.910156 168.757812 97.726562 169.125 97.574219 C 169.488281 97.425781 169.867188 97.308594 170.253906 97.234375 C 170.640625 97.15625 171.03125 97.117188 171.429688 97.117188 C 171.824219 97.117188 172.214844 97.15625 172.605469 97.234375 C 172.992188 97.308594 173.367188 97.425781 173.734375 97.574219 C 174.101562 97.726562 174.445312 97.910156 174.777344 98.132812 C 175.105469 98.351562 175.410156 98.601562 175.6875 98.878906 C 175.96875 99.160156 176.21875 99.460938 176.4375 99.789062 C 176.65625 100.117188 176.84375 100.464844 176.996094 100.832031 C 177.144531 101.195312 177.261719 101.570312 177.335938 101.957031 C 177.414062 102.34375 177.453125 102.738281 177.453125 103.132812 Z M 177.453125 103.132812 " fill-opacity="1" fill-rule="nonzero"></path><path fill="#1c0c91" d="M 171.429688 110.210938 C 167.515625 110.210938 164.335938 107.035156 164.335938 103.132812 C 164.335938 99.226562 167.515625 96.050781 171.429688 96.050781 C 175.339844 96.050781 178.523438 99.226562 178.523438 103.132812 C 178.523438 107.035156 175.339844 110.210938 171.429688 110.210938 Z M 171.429688 98.183594 C 168.695312 98.183594 166.472656 100.402344 166.472656 103.132812 C 166.472656 105.859375 168.695312 108.078125 171.429688 108.078125 C 174.160156 108.078125 176.382812 105.859375 176.382812 103.132812 C 176.382812 100.402344 174.160156 98.183594 171.429688 98.183594 Z M 171.429688 98.183594 " fill-opacity="1" fill-rule="nonzero"></path><path fill="#51eded" d="M 200.847656 93.75 C 200.847656 94.144531 200.808594 94.535156 200.730469 94.925781 C 200.652344 95.3125 200.539062 95.6875 200.386719 96.050781 C 200.238281 96.417969 200.050781 96.765625 199.832031 97.09375 C 199.613281 97.421875 199.363281 97.722656 199.082031 98.003906 C 198.804688 98.28125 198.5 98.53125 198.167969 98.75 C 197.839844 98.972656 197.492188 99.15625 197.128906 99.308594 C 196.761719 99.457031 196.386719 99.570312 195.996094 99.648438 C 195.609375 99.726562 195.21875 99.765625 194.824219 99.765625 C 194.425781 99.765625 194.035156 99.726562 193.648438 99.648438 C 193.257812 99.570312 192.882812 99.457031 192.515625 99.308594 C 192.152344 99.15625 191.804688 98.972656 191.476562 98.75 C 191.144531 98.53125 190.84375 98.28125 190.5625 98.003906 C 190.28125 97.722656 190.03125 97.421875 189.8125 97.09375 C 189.59375 96.765625 189.40625 96.417969 189.257812 96.050781 C 189.105469 95.6875 188.992188 95.3125 188.914062 94.925781 C 188.835938 94.535156 188.796875 94.144531 188.796875 93.75 C 188.796875 93.355469 188.835938 92.964844 188.914062 92.578125 C 188.992188 92.191406 189.105469 91.816406 189.257812 91.449219 C 189.40625 91.085938 189.59375 90.738281 189.8125 90.410156 C 190.03125 90.082031 190.28125 89.777344 190.5625 89.5 C 190.84375 89.21875 191.144531 88.96875 191.476562 88.75 C 191.804688 88.53125 192.152344 88.347656 192.515625 88.195312 C 192.882812 88.042969 193.257812 87.929688 193.648438 87.851562 C 194.035156 87.777344 194.425781 87.738281 194.824219 87.738281 C 195.21875 87.738281 195.609375 87.777344 195.996094 87.851562 C 196.386719 87.929688 196.761719 88.042969 197.128906 88.195312 C 197.492188 88.347656 197.839844 88.53125 198.167969 88.75 C 198.5 88.96875 198.804688 89.21875 199.082031 89.5 C 199.363281 89.777344 199.613281 90.082031 199.832031 90.410156 C 200.050781 90.738281 200.238281 91.085938 200.386719 91.449219 C 200.539062 91.816406 200.652344 92.191406 200.730469 92.578125 C 200.808594 92.964844 200.847656 93.355469 200.847656 93.75 Z M 200.847656 93.75 " fill-opacity="1" fill-rule="nonzero"></path><g clip-path="url(#66fcf342f4)"><path fill="#1c0c91" d="M 194.824219 100.832031 C 190.910156 100.832031 187.726562 97.65625 187.726562 93.75 C 187.726562 89.847656 190.910156 86.671875 194.824219 86.671875 C 198.734375 86.671875 201.917969 89.847656 201.917969 93.75 C 201.917969 97.65625 198.734375 100.832031 194.824219 100.832031 Z M 194.824219 88.804688 C 192.089844 88.804688 189.867188 91.023438 189.867188 93.75 C 189.867188 96.480469 192.089844 98.699219 194.824219 98.699219 C 197.554688 98.699219 199.777344 96.480469 199.777344 93.75 C 199.777344 91.023438 197.554688 88.804688 194.824219 88.804688 Z M 194.824219 88.804688 " fill-opacity="1" fill-rule="nonzero"></path></g><path fill="#ff9661" d="M 225.65625 113.144531 C 225.65625 113.542969 225.621094 113.933594 225.542969 114.320312 C 225.464844 114.707031 225.351562 115.082031 225.199219 115.449219 C 225.046875 115.8125 224.863281 116.160156 224.644531 116.488281 C 224.421875 116.816406 224.171875 117.121094 223.894531 117.398438 C 223.613281 117.679688 223.308594 117.925781 222.980469 118.148438 C 222.652344 118.367188 222.304688 118.550781 221.9375 118.703125 C 221.574219 118.851562 221.195312 118.96875 220.808594 119.042969 C 220.421875 119.121094 220.027344 119.160156 219.632812 119.160156 C 219.238281 119.160156 218.847656 119.121094 218.457031 119.042969 C 218.070312 118.96875 217.691406 118.851562 217.328125 118.703125 C 216.960938 118.550781 216.613281 118.367188 216.285156 118.148438 C 215.957031 117.925781 215.652344 117.679688 215.371094 117.398438 C 215.09375 117.121094 214.84375 116.816406 214.625 116.488281 C 214.402344 116.160156 214.21875 115.8125 214.066406 115.449219 C 213.914062 115.082031 213.800781 114.707031 213.722656 114.320312 C 213.648438 113.933594 213.609375 113.542969 213.609375 113.144531 C 213.609375 112.75 213.648438 112.359375 213.722656 111.972656 C 213.800781 111.585938 213.914062 111.210938 214.066406 110.84375 C 214.21875 110.480469 214.402344 110.132812 214.625 109.804688 C 214.84375 109.476562 215.09375 109.171875 215.371094 108.894531 C 215.652344 108.613281 215.957031 108.367188 216.285156 108.144531 C 216.613281 107.925781 216.960938 107.742188 217.328125 107.589844 C 217.691406 107.4375 218.070312 107.324219 218.457031 107.25 C 218.847656 107.171875 219.238281 107.132812 219.632812 107.132812 C 220.027344 107.132812 220.421875 107.171875 220.808594 107.25 C 221.195312 107.324219 221.574219 107.4375 221.9375 107.589844 C 222.304688 107.742188 222.652344 107.925781 222.980469 108.144531 C 223.308594 108.367188 223.613281 108.613281 223.894531 108.894531 C 224.171875 109.171875 224.421875 109.476562 224.644531 109.804688 C 224.863281 110.132812 225.046875 110.480469 225.199219 110.84375 C 225.351562 111.210938 225.464844 111.585938 225.542969 111.972656 C 225.621094 112.359375 225.65625 112.75 225.65625 113.144531 Z M 225.65625 113.144531 " fill-opacity="1" fill-rule="nonzero"></path><path fill="#1c0c91" d="M 219.632812 120.226562 C 215.722656 120.226562 212.539062 117.050781 212.539062 113.144531 C 212.539062 109.242188 215.722656 106.066406 219.632812 106.066406 C 223.542969 106.066406 226.726562 109.242188 226.726562 113.144531 C 226.726562 117.050781 223.542969 120.226562 219.632812 120.226562 Z M 219.632812 108.199219 C 216.902344 108.199219 214.675781 110.417969 214.675781 113.144531 C 214.675781 115.875 216.902344 118.09375 219.632812 118.09375 C 222.367188 118.09375 224.589844 115.875 224.589844 113.144531 C 224.589844 110.417969 222.367188 108.199219 219.632812 108.199219 Z M 219.632812 108.199219 " fill-opacity="1" fill-rule="nonzero"></path><g fill="#100d28" fill-opacity="1"><g transform="translate(51.855996, 254.571093)"><g><path d="M 19.734375 -18.8125 C 19.066406 -19.769531 18.460938 -20.445312 17.921875 -20.84375 C 17.390625 -21.238281 16.8125 -21.519531 16.1875 -21.6875 C 15.570312 -21.863281 14.925781 -21.953125 14.25 -21.953125 C 13.25 -21.953125 12.320312 -21.726562 11.46875 -21.28125 C 10.613281 -20.84375 9.875 -20.238281 9.25 -19.46875 C 8.625 -18.695312 8.128906 -17.800781 7.765625 -16.78125 C 7.410156 -15.769531 7.234375 -14.695312 7.234375 -13.5625 C 7.234375 -12.40625 7.410156 -11.316406 7.765625 -10.296875 C 8.117188 -9.285156 8.601562 -8.398438 9.21875 -7.640625 C 9.84375 -6.878906 10.582031 -6.273438 11.4375 -5.828125 C 12.289062 -5.378906 13.226562 -5.15625 14.25 -5.15625 C 14.96875 -5.15625 15.632812 -5.269531 16.25 -5.5 C 16.863281 -5.726562 17.421875 -6.035156 17.921875 -6.421875 C 18.429688 -6.804688 18.875 -7.242188 19.25 -7.734375 C 19.632812 -8.222656 19.9375 -8.738281 20.15625 -9.28125 L 25.90625 -7.671875 C 25.53125 -6.503906 24.984375 -5.421875 24.265625 -4.421875 C 23.554688 -3.429688 22.695312 -2.570312 21.6875 -1.84375 C 20.6875 -1.125 19.554688 -0.554688 18.296875 -0.140625 C 17.046875 0.273438 15.695312 0.484375 14.25 0.484375 C 13.03125 0.484375 11.859375 0.316406 10.734375 -0.015625 C 9.617188 -0.347656 8.578125 -0.816406 7.609375 -1.421875 C 6.640625 -2.035156 5.757812 -2.769531 4.96875 -3.625 C 4.175781 -4.476562 3.5 -5.425781 2.9375 -6.46875 C 2.382812 -7.507812 1.953125 -8.625 1.640625 -9.8125 C 1.328125 -11.007812 1.171875 -12.257812 1.171875 -13.5625 C 1.171875 -15.5 1.507812 -17.3125 2.1875 -19 C 2.863281 -20.695312 3.789062 -22.175781 4.96875 -23.4375 C 6.15625 -24.707031 7.539062 -25.707031 9.125 -26.4375 C 10.707031 -27.175781 12.414062 -27.546875 14.25 -27.546875 C 15.71875 -27.546875 16.945312 -27.363281 17.9375 -27 C 18.9375 -26.632812 20.039062 -25.914062 21.25 -24.84375 L 25.234375 -24.84375 L 25.234375 -18.8125 Z M 19.734375 -18.8125 "></path></g></g></g><g fill="#100d28" fill-opacity="1"><g transform="translate(79.570948, 254.571093)"><g><path d="M 14.25 0.484375 C 13.03125 0.484375 11.859375 0.316406 10.734375 -0.015625 C 9.617188 -0.347656 8.578125 -0.816406 7.609375 -1.421875 C 6.640625 -2.035156 5.757812 -2.765625 4.96875 -3.609375 C 4.175781 -4.460938 3.5 -5.410156 2.9375 -6.453125 C 2.382812 -7.492188 1.953125 -8.609375 1.640625 -9.796875 C 1.328125 -10.984375 1.171875 -12.222656 1.171875 -13.515625 C 1.171875 -14.816406 1.328125 -16.0625 1.640625 -17.25 C 1.953125 -18.445312 2.382812 -19.566406 2.9375 -20.609375 C 3.5 -21.648438 4.175781 -22.59375 4.96875 -23.4375 C 5.757812 -24.289062 6.640625 -25.019531 7.609375 -25.625 C 8.578125 -26.238281 9.617188 -26.710938 10.734375 -27.046875 C 11.859375 -27.378906 13.03125 -27.546875 14.25 -27.546875 C 15.476562 -27.546875 16.648438 -27.378906 17.765625 -27.046875 C 18.890625 -26.710938 19.9375 -26.238281 20.90625 -25.625 C 21.882812 -25.019531 22.765625 -24.289062 23.546875 -23.4375 C 24.335938 -22.59375 25.015625 -21.648438 25.578125 -20.609375 C 26.148438 -19.566406 26.585938 -18.445312 26.890625 -17.25 C 27.203125 -16.0625 27.359375 -14.816406 27.359375 -13.515625 C 27.359375 -12.234375 27.203125 -10.992188 26.890625 -9.796875 C 26.585938 -8.609375 26.148438 -7.492188 25.578125 -6.453125 C 25.015625 -5.410156 24.335938 -4.460938 23.546875 -3.609375 C 22.765625 -2.765625 21.882812 -2.035156 20.90625 -1.421875 C 19.9375 -0.816406 18.890625 -0.347656 17.765625 -0.015625 C 16.648438 0.316406 15.476562 0.484375 14.25 0.484375 Z M 14.25 -5.125 C 15.28125 -5.125 16.226562 -5.34375 17.09375 -5.78125 C 17.957031 -6.226562 18.695312 -6.835938 19.3125 -7.609375 C 19.9375 -8.378906 20.414062 -9.269531 20.75 -10.28125 C 21.09375 -11.300781 21.265625 -12.378906 21.265625 -13.515625 C 21.265625 -14.671875 21.09375 -15.757812 20.75 -16.78125 C 20.40625 -17.800781 19.921875 -18.695312 19.296875 -19.46875 C 18.671875 -20.238281 17.925781 -20.84375 17.0625 -21.28125 C 16.207031 -21.726562 15.269531 -21.953125 14.25 -21.953125 C 13.226562 -21.953125 12.289062 -21.726562 11.4375 -21.28125 C 10.582031 -20.84375 9.84375 -20.238281 9.21875 -19.46875 C 8.601562 -18.695312 8.117188 -17.800781 7.765625 -16.78125 C 7.410156 -15.757812 7.234375 -14.671875 7.234375 -13.515625 C 7.234375 -12.378906 7.410156 -11.300781 7.765625 -10.28125 C 8.117188 -9.269531 8.601562 -8.378906 9.21875 -7.609375 C 9.84375 -6.835938 10.582031 -6.226562 11.4375 -5.78125 C 12.289062 -5.34375 13.226562 -5.125 14.25 -5.125 Z M 14.25 -5.125 "></path></g></g></g><g fill="#100d28" fill-opacity="1"><g transform="translate(108.462983, 254.571093)"><g><path d="M 2.015625 -27.046875 L 16.328125 -27.046875 C 17.710938 -27.046875 18.953125 -26.835938 20.046875 -26.421875 C 21.140625 -26.003906 22.0625 -25.445312 22.8125 -24.75 C 23.5625 -24.050781 24.132812 -23.238281 24.53125 -22.3125 C 24.9375 -21.394531 25.140625 -20.4375 25.140625 -19.4375 C 25.140625 -18.519531 25.039062 -17.71875 24.84375 -17.03125 C 24.644531 -16.34375 24.359375 -15.726562 23.984375 -15.1875 C 23.609375 -14.65625 23.144531 -14.1875 22.59375 -13.78125 C 22.050781 -13.375 21.429688 -13.003906 20.734375 -12.671875 C 21.335938 -12.359375 21.867188 -11.882812 22.328125 -11.25 C 22.796875 -10.613281 23.148438 -9.789062 23.390625 -8.78125 L 24.296875 -5.265625 L 26.53125 -5.265625 L 26.5625 0 L 18.71875 0 L 17.640625 -6.421875 C 17.535156 -7.179688 17.375 -7.835938 17.15625 -8.390625 C 16.9375 -8.941406 16.640625 -9.394531 16.265625 -9.75 C 15.898438 -10.101562 15.453125 -10.363281 14.921875 -10.53125 C 14.390625 -10.695312 13.765625 -10.78125 13.046875 -10.78125 L 10.734375 -10.78125 L 10.734375 -4.890625 L 13.21875 -4.890625 L 13.21875 0 L 2.015625 0 L 2.015625 -4.890625 L 4.8125 -4.890625 L 4.8125 -22.140625 L 2.015625 -22.140625 Z M 10.734375 -22.140625 L 10.734375 -15.59375 L 14.28125 -15.59375 C 14.957031 -15.59375 15.566406 -15.65625 16.109375 -15.78125 C 16.648438 -15.90625 17.113281 -16.097656 17.5 -16.359375 C 17.894531 -16.628906 18.195312 -16.96875 18.40625 -17.375 C 18.613281 -17.78125 18.71875 -18.257812 18.71875 -18.8125 C 18.71875 -19.863281 18.34375 -20.679688 17.59375 -21.265625 C 16.84375 -21.847656 15.738281 -22.140625 14.28125 -22.140625 Z M 10.734375 -22.140625 "></path></g></g></g><g fill="#100d28" fill-opacity="1"><g transform="translate(135.749906, 254.571093)"><g><path d="M 2.015625 -27.046875 L 23.53125 -27.046875 L 23.53125 -17.8125 L 17.71875 -17.8125 L 17.71875 -21.65625 L 10.78125 -21.65625 L 10.78125 -16.328125 L 16.140625 -16.328125 L 16.140625 -11.15625 L 10.78125 -11.15625 L 10.78125 -4.890625 L 17.71875 -4.890625 L 17.71875 -9.6875 L 23.53125 -9.6875 L 23.53125 0 L 2.015625 0 L 2.015625 -4.890625 L 4.859375 -4.890625 L 4.859375 -21.65625 L 2.015625 -21.65625 Z M 2.015625 -27.046875 "></path></g></g></g><g fill="#100d28" fill-opacity="1"><g transform="translate(160.377787, 254.571093)"><g></g></g></g><g fill="#100d28" fill-opacity="1"><g transform="translate(167.689969, 254.571093)"><g></g></g></g><g fill="#100d28" fill-opacity="1"><g transform="translate(175.00215, 254.571093)"><g></g></g></g><g fill="#100d28" fill-opacity="1"><g transform="translate(182.314332, 254.571093)"><g></g></g></g><g fill="#100d28" fill-opacity="1"><g transform="translate(189.626514, 254.571093)"><g></g></g></g><g fill="#100d28" fill-opacity="1"><g transform="translate(196.938696, 254.571093)"><g></g></g></g><g fill="#100d28" fill-opacity="1"><g transform="translate(204.250878, 254.571093)"><g></g></g></g><g fill="#100d28" fill-opacity="1"><g transform="translate(211.5757, 254.571093)"><g><path d="M 6.65625 -4.890625 L 9.453125 -4.890625 L 9.453125 -22.3125 L 6.171875 -22.3125 L 6.171875 -18.8125 L 0.359375 -18.8125 L 0.359375 -27.046875 L 24.953125 -27.046875 L 24.953125 -18.8125 L 19.109375 -18.8125 L 19.109375 -22.3125 L 15.375 -22.3125 L 15.375 -4.890625 L 18.234375 -4.890625 L 18.234375 0 L 6.65625 0 Z M 6.65625 -4.890625 "></path></g></g></g><g fill="#100d28" fill-opacity="1"><g transform="translate(237.079163, 254.571093)"><g><path d="M 2.015625 -27.046875 L 23.53125 -27.046875 L 23.53125 -17.8125 L 17.71875 -17.8125 L 17.71875 -21.65625 L 10.78125 -21.65625 L 10.78125 -16.328125 L 16.140625 -16.328125 L 16.140625 -11.15625 L 10.78125 -11.15625 L 10.78125 -4.890625 L 17.71875 -4.890625 L 17.71875 -9.6875 L 23.53125 -9.6875 L 23.53125 0 L 2.015625 0 L 2.015625 -4.890625 L 4.859375 -4.890625 L 4.859375 -21.65625 L 2.015625 -21.65625 Z M 2.015625 -27.046875 "></path></g></g></g><g fill="#100d28" fill-opacity="1"><g transform="translate(261.690898, 254.571093)"><g><path d="M 19.734375 -18.8125 C 19.066406 -19.769531 18.460938 -20.445312 17.921875 -20.84375 C 17.390625 -21.238281 16.8125 -21.519531 16.1875 -21.6875 C 15.570312 -21.863281 14.925781 -21.953125 14.25 -21.953125 C 13.25 -21.953125 12.320312 -21.726562 11.46875 -21.28125 C 10.613281 -20.84375 9.875 -20.238281 9.25 -19.46875 C 8.625 -18.695312 8.128906 -17.800781 7.765625 -16.78125 C 7.410156 -15.769531 7.234375 -14.695312 7.234375 -13.5625 C 7.234375 -12.40625 7.410156 -11.316406 7.765625 -10.296875 C 8.117188 -9.285156 8.601562 -8.398438 9.21875 -7.640625 C 9.84375 -6.878906 10.582031 -6.273438 11.4375 -5.828125 C 12.289062 -5.378906 13.226562 -5.15625 14.25 -5.15625 C 14.96875 -5.15625 15.632812 -5.269531 16.25 -5.5 C 16.863281 -5.726562 17.421875 -6.035156 17.921875 -6.421875 C 18.429688 -6.804688 18.875 -7.242188 19.25 -7.734375 C 19.632812 -8.222656 19.9375 -8.738281 20.15625 -9.28125 L 25.90625 -7.671875 C 25.53125 -6.503906 24.984375 -5.421875 24.265625 -4.421875 C 23.554688 -3.429688 22.695312 -2.570312 21.6875 -1.84375 C 20.6875 -1.125 19.554688 -0.554688 18.296875 -0.140625 C 17.046875 0.273438 15.695312 0.484375 14.25 0.484375 C 13.03125 0.484375 11.859375 0.316406 10.734375 -0.015625 C 9.617188 -0.347656 8.578125 -0.816406 7.609375 -1.421875 C 6.640625 -2.035156 5.757812 -2.769531 4.96875 -3.625 C 4.175781 -4.476562 3.5 -5.425781 2.9375 -6.46875 C 2.382812 -7.507812 1.953125 -8.625 1.640625 -9.8125 C 1.328125 -11.007812 1.171875 -12.257812 1.171875 -13.5625 C 1.171875 -15.5 1.507812 -17.3125 2.1875 -19 C 2.863281 -20.695312 3.789062 -22.175781 4.96875 -23.4375 C 6.15625 -24.707031 7.539062 -25.707031 9.125 -26.4375 C 10.707031 -27.175781 12.414062 -27.546875 14.25 -27.546875 C 15.71875 -27.546875 16.945312 -27.363281 17.9375 -27 C 18.9375 -26.632812 20.039062 -25.914062 21.25 -24.84375 L 25.234375 -24.84375 L 25.234375 -18.8125 Z M 19.734375 -18.8125 "></path></g></g></g><g fill="#100d28" fill-opacity="1"><g transform="translate(289.40585, 254.571093)"><g><path d="M 20.125 -27.046875 L 31.71875 -27.046875 L 31.71875 -22.140625 L 28.859375 -22.140625 L 28.859375 -4.890625 L 31.71875 -4.890625 L 31.71875 0 L 20.125 0 L 20.125 -4.890625 L 22.9375 -4.890625 L 22.9375 -11.8125 L 10.734375 -11.8125 L 10.734375 -4.890625 L 13.59375 -4.890625 L 13.59375 0 L 2.015625 0 L 2.015625 -4.890625 L 4.8125 -4.890625 L 4.8125 -22.140625 L 2.015625 -22.140625 L 2.015625 -27.046875 L 13.59375 -27.046875 L 13.59375 -22.140625 L 10.734375 -22.140625 L 10.734375 -16.515625 L 22.9375 -16.515625 L 22.9375 -22.140625 L 20.125 -22.140625 Z M 20.125 -27.046875 "></path></g></g></g><g fill="#8c52ff" fill-opacity="1"><g transform="translate(154.613883, 261.421614)"><g><path d="M 65.265625 0 L 46.015625 0 L 32.890625 -13.890625 L 19.734375 0 L 0.46875 0 L 24.046875 -23.171875 L 0.46875 -45.265625 L 19.734375 -45.265625 L 32.890625 -32.28125 L 46.015625 -45.265625 L 65.265625 -45.265625 L 41.6875 -23.171875 Z M 65.265625 0 "></path></g></g></g><g fill="#100d28" fill-opacity="1"><g transform="translate(68.344577, 285.521458)"><g><path d="M 3.28125 0 L 1.296875 0 L 1.296875 -10.03125 L 3.28125 -10.03125 Z M 3.28125 0 "></path></g></g></g><g fill="#100d28" fill-opacity="1"><g transform="translate(78.56111, 285.521458)"><g><path d="M 8.03125 -10.03125 L 8.03125 -8.359375 L 5.140625 -8.359375 L 5.140625 0 L 3.171875 0 L 3.171875 -8.359375 L 0.28125 -8.359375 L 0.28125 -10.03125 Z M 8.03125 -10.03125 "></path></g></g></g><g fill="#100d28" fill-opacity="1"><g transform="translate(92.495134, 285.521458)"><g></g></g></g><g fill="#100d28" fill-opacity="1"><g transform="translate(101.429072, 285.521458)"><g><path d="M 4.4375 0.140625 C 3.75 0.140625 3.132812 0.0546875 2.59375 -0.109375 C 2.050781 -0.285156 1.597656 -0.507812 1.234375 -0.78125 C 0.867188 -1.0625 0.59375 -1.367188 0.40625 -1.703125 L 1.5 -3.03125 L 1.671875 -3.03125 C 1.972656 -2.582031 2.351562 -2.226562 2.8125 -1.96875 C 3.28125 -1.707031 3.820312 -1.578125 4.4375 -1.578125 C 4.96875 -1.578125 5.367188 -1.6875 5.640625 -1.90625 C 5.910156 -2.132812 6.046875 -2.441406 6.046875 -2.828125 C 6.046875 -3.066406 6 -3.265625 5.90625 -3.421875 C 5.820312 -3.585938 5.679688 -3.726562 5.484375 -3.84375 C 5.285156 -3.957031 5.015625 -4.054688 4.671875 -4.140625 L 3.375 -4.4375 C 2.476562 -4.632812 1.804688 -4.972656 1.359375 -5.453125 C 0.921875 -5.929688 0.703125 -6.550781 0.703125 -7.3125 C 0.703125 -7.882812 0.84375 -8.382812 1.125 -8.8125 C 1.414062 -9.238281 1.832031 -9.570312 2.375 -9.8125 C 2.914062 -10.050781 3.5625 -10.171875 4.3125 -10.171875 C 5.082031 -10.171875 5.742188 -10.066406 6.296875 -9.859375 C 6.847656 -9.660156 7.316406 -9.351562 7.703125 -8.9375 L 6.71875 -7.578125 L 6.546875 -7.578125 C 6.265625 -7.878906 5.9375 -8.101562 5.5625 -8.25 C 5.195312 -8.40625 4.78125 -8.484375 4.3125 -8.484375 C 3.769531 -8.484375 3.351562 -8.382812 3.0625 -8.1875 C 2.78125 -8 2.640625 -7.734375 2.640625 -7.390625 C 2.640625 -7.078125 2.738281 -6.828125 2.9375 -6.640625 C 3.144531 -6.453125 3.492188 -6.304688 3.984375 -6.203125 L 5.296875 -5.921875 C 6.265625 -5.722656 6.96875 -5.375 7.40625 -4.875 C 7.851562 -4.382812 8.078125 -3.742188 8.078125 -2.953125 C 8.078125 -2.328125 7.941406 -1.78125 7.671875 -1.3125 C 7.398438 -0.851562 6.988281 -0.492188 6.4375 -0.234375 C 5.894531 0.015625 5.226562 0.140625 4.4375 0.140625 Z M 4.4375 0.140625 "></path></g></g></g><g fill="#100d28" fill-opacity="1"><g transform="translate(115.664886, 285.521458)"><g><path d="M 7.46875 -3.359375 L 2.609375 -3.359375 C 2.671875 -2.691406 2.859375 -2.207031 3.171875 -1.90625 C 3.492188 -1.613281 3.929688 -1.46875 4.484375 -1.46875 C 4.921875 -1.46875 5.273438 -1.546875 5.546875 -1.703125 C 5.816406 -1.867188 6.03125 -2.117188 6.1875 -2.453125 L 6.34375 -2.453125 L 7.59375 -1.640625 C 7.351562 -1.109375 6.984375 -0.675781 6.484375 -0.34375 C 5.984375 -0.0195312 5.316406 0.140625 4.484375 0.140625 C 3.703125 0.140625 3.023438 -0.00390625 2.453125 -0.296875 C 1.890625 -0.597656 1.453125 -1.039062 1.140625 -1.625 C 0.828125 -2.21875 0.671875 -2.9375 0.671875 -3.78125 C 0.671875 -4.632812 0.832031 -5.359375 1.15625 -5.953125 C 1.488281 -6.546875 1.929688 -6.984375 2.484375 -7.265625 C 3.035156 -7.554688 3.65625 -7.703125 4.34375 -7.703125 C 5.414062 -7.703125 6.234375 -7.421875 6.796875 -6.859375 C 7.367188 -6.296875 7.65625 -5.460938 7.65625 -4.359375 C 7.65625 -3.960938 7.644531 -3.65625 7.625 -3.4375 Z M 5.84375 -4.578125 C 5.820312 -5.160156 5.6875 -5.582031 5.4375 -5.84375 C 5.1875 -6.101562 4.820312 -6.234375 4.34375 -6.234375 C 3.382812 -6.234375 2.820312 -5.679688 2.65625 -4.578125 Z M 5.84375 -4.578125 "></path></g></g></g><g fill="#100d28" fill-opacity="1"><g transform="translate(129.509754, 285.521458)"><g><path d="M 1.09375 0 L 1.09375 -7.5625 L 2.9375 -7.5625 L 2.9375 -6.4375 L 3.078125 -6.40625 C 3.265625 -6.832031 3.503906 -7.144531 3.796875 -7.34375 C 4.097656 -7.539062 4.460938 -7.640625 4.890625 -7.640625 C 5.316406 -7.640625 5.640625 -7.566406 5.859375 -7.421875 L 5.546875 -5.78125 L 5.390625 -5.75 C 5.273438 -5.800781 5.160156 -5.835938 5.046875 -5.859375 C 4.929688 -5.878906 4.789062 -5.890625 4.625 -5.890625 C 4.09375 -5.890625 3.6875 -5.703125 3.40625 -5.328125 C 3.125 -4.960938 2.984375 -4.367188 2.984375 -3.546875 L 2.984375 0 Z M 1.09375 0 "></path></g></g></g><g fill="#100d28" fill-opacity="1"><g transform="translate(141.063766, 285.521458)"><g><path d="M 5.203125 0 L 2.9375 0 L 0.140625 -7.5625 L 2.140625 -7.5625 L 4.015625 -2.171875 L 4.171875 -2.171875 L 6.0625 -7.5625 L 8 -7.5625 Z M 5.203125 0 "></path></g></g></g><g fill="#100d28" fill-opacity="1"><g transform="translate(154.819461, 285.521458)"><g><path d="M 2.03125 -8.46875 C 1.6875 -8.46875 1.40625 -8.570312 1.1875 -8.78125 C 0.976562 -8.988281 0.875 -9.257812 0.875 -9.59375 C 0.875 -9.914062 0.976562 -10.179688 1.1875 -10.390625 C 1.40625 -10.597656 1.6875 -10.703125 2.03125 -10.703125 C 2.257812 -10.703125 2.460938 -10.648438 2.640625 -10.546875 C 2.828125 -10.453125 2.96875 -10.320312 3.0625 -10.15625 C 3.15625 -9.988281 3.203125 -9.800781 3.203125 -9.59375 C 3.203125 -9.375 3.15625 -9.179688 3.0625 -9.015625 C 2.96875 -8.847656 2.828125 -8.710938 2.640625 -8.609375 C 2.460938 -8.515625 2.257812 -8.46875 2.03125 -8.46875 Z M 1.09375 0 L 1.09375 -7.5625 L 2.984375 -7.5625 L 2.984375 0 Z M 1.09375 0 "></path></g></g></g><g fill="#100d28" fill-opacity="1"><g transform="translate(164.514724, 285.521458)"><g><path d="M 4.40625 0.140625 C 3.675781 0.140625 3.03125 -0.0078125 2.46875 -0.3125 C 1.90625 -0.613281 1.460938 -1.054688 1.140625 -1.640625 C 0.828125 -2.234375 0.671875 -2.945312 0.671875 -3.78125 C 0.671875 -4.613281 0.828125 -5.320312 1.140625 -5.90625 C 1.460938 -6.5 1.898438 -6.945312 2.453125 -7.25 C 3.015625 -7.550781 3.65625 -7.703125 4.375 -7.703125 C 5.96875 -7.703125 6.988281 -7.125 7.4375 -5.96875 L 6.140625 -5.046875 L 6 -5.046875 C 5.84375 -5.398438 5.640625 -5.660156 5.390625 -5.828125 C 5.140625 -6.003906 4.800781 -6.09375 4.375 -6.09375 C 3.820312 -6.09375 3.394531 -5.898438 3.09375 -5.515625 C 2.789062 -5.140625 2.640625 -4.5625 2.640625 -3.78125 C 2.640625 -3 2.789062 -2.414062 3.09375 -2.03125 C 3.40625 -1.65625 3.84375 -1.46875 4.40625 -1.46875 C 4.820312 -1.46875 5.171875 -1.578125 5.453125 -1.796875 C 5.742188 -2.023438 5.945312 -2.34375 6.0625 -2.75 L 6.21875 -2.765625 L 7.5625 -2.03125 C 7.375 -1.382812 7.019531 -0.859375 6.5 -0.453125 C 5.976562 -0.0546875 5.28125 0.140625 4.40625 0.140625 Z M 4.40625 0.140625 "></path></g></g></g><g fill="#100d28" fill-opacity="1"><g transform="translate(177.934344, 285.521458)"><g><path d="M 7.46875 -3.359375 L 2.609375 -3.359375 C 2.671875 -2.691406 2.859375 -2.207031 3.171875 -1.90625 C 3.492188 -1.613281 3.929688 -1.46875 4.484375 -1.46875 C 4.921875 -1.46875 5.273438 -1.546875 5.546875 -1.703125 C 5.816406 -1.867188 6.03125 -2.117188 6.1875 -2.453125 L 6.34375 -2.453125 L 7.59375 -1.640625 C 7.351562 -1.109375 6.984375 -0.675781 6.484375 -0.34375 C 5.984375 -0.0195312 5.316406 0.140625 4.484375 0.140625 C 3.703125 0.140625 3.023438 -0.00390625 2.453125 -0.296875 C 1.890625 -0.597656 1.453125 -1.039062 1.140625 -1.625 C 0.828125 -2.21875 0.671875 -2.9375 0.671875 -3.78125 C 0.671875 -4.632812 0.832031 -5.359375 1.15625 -5.953125 C 1.488281 -6.546875 1.929688 -6.984375 2.484375 -7.265625 C 3.035156 -7.554688 3.65625 -7.703125 4.34375 -7.703125 C 5.414062 -7.703125 6.234375 -7.421875 6.796875 -6.859375 C 7.367188 -6.296875 7.65625 -5.460938 7.65625 -4.359375 C 7.65625 -3.960938 7.644531 -3.65625 7.625 -3.4375 Z M 5.84375 -4.578125 C 5.820312 -5.160156 5.6875 -5.582031 5.4375 -5.84375 C 5.1875 -6.101562 4.820312 -6.234375 4.34375 -6.234375 C 3.382812 -6.234375 2.820312 -5.679688 2.65625 -4.578125 Z M 5.84375 -4.578125 "></path></g></g></g><g fill="#100d28" fill-opacity="1"><g transform="translate(191.779212, 285.521458)"><g><path d="M 3.546875 0.140625 C 3.023438 0.140625 2.546875 0.0820312 2.109375 -0.03125 C 1.679688 -0.15625 1.316406 -0.320312 1.015625 -0.53125 C 0.710938 -0.75 0.488281 -0.992188 0.34375 -1.265625 L 1.40625 -2.40625 L 1.546875 -2.40625 C 1.796875 -2.070312 2.09375 -1.816406 2.4375 -1.640625 C 2.78125 -1.472656 3.148438 -1.390625 3.546875 -1.390625 C 3.921875 -1.390625 4.203125 -1.457031 4.390625 -1.59375 C 4.578125 -1.726562 4.671875 -1.914062 4.671875 -2.15625 C 4.671875 -2.351562 4.601562 -2.515625 4.46875 -2.640625 C 4.332031 -2.773438 4.113281 -2.878906 3.8125 -2.953125 L 2.8125 -3.1875 C 2.0625 -3.363281 1.515625 -3.632812 1.171875 -4 C 0.828125 -4.375 0.65625 -4.84375 0.65625 -5.40625 C 0.65625 -5.882812 0.773438 -6.296875 1.015625 -6.640625 C 1.253906 -6.984375 1.59375 -7.242188 2.03125 -7.421875 C 2.46875 -7.609375 2.972656 -7.703125 3.546875 -7.703125 C 4.234375 -7.703125 4.800781 -7.601562 5.25 -7.40625 C 5.695312 -7.21875 6.046875 -6.957031 6.296875 -6.625 L 5.28125 -5.53125 L 5.140625 -5.53125 C 4.929688 -5.769531 4.695312 -5.941406 4.4375 -6.046875 C 4.175781 -6.160156 3.878906 -6.21875 3.546875 -6.21875 C 2.796875 -6.21875 2.421875 -5.984375 2.421875 -5.515625 C 2.421875 -5.316406 2.488281 -5.15625 2.625 -5.03125 C 2.769531 -4.90625 3.019531 -4.804688 3.375 -4.734375 L 4.3125 -4.53125 C 5.070312 -4.363281 5.628906 -4.097656 5.984375 -3.734375 C 6.335938 -3.367188 6.515625 -2.878906 6.515625 -2.265625 C 6.515625 -1.785156 6.394531 -1.363281 6.15625 -1 C 5.925781 -0.632812 5.585938 -0.351562 5.140625 -0.15625 C 4.691406 0.0390625 4.160156 0.140625 3.546875 0.140625 Z M 3.546875 0.140625 "></path></g></g></g><g fill="#100d28" fill-opacity="1"><g transform="translate(204.375764, 285.521458)"><g></g></g></g><g fill="#100d28" fill-opacity="1"><g transform="translate(213.309703, 285.521458)"><g><path d="M 5.171875 -10.03125 C 5.890625 -10.03125 6.503906 -9.894531 7.015625 -9.625 C 7.523438 -9.363281 7.910156 -8.992188 8.171875 -8.515625 C 8.429688 -8.046875 8.5625 -7.5 8.5625 -6.875 C 8.5625 -6.25 8.429688 -5.703125 8.171875 -5.234375 C 7.910156 -4.765625 7.523438 -4.394531 7.015625 -4.125 C 6.503906 -3.863281 5.890625 -3.734375 5.171875 -3.734375 L 3.28125 -3.734375 L 3.28125 0 L 1.296875 0 L 1.296875 -10.03125 Z M 4.921875 -5.3125 C 6.023438 -5.3125 6.578125 -5.832031 6.578125 -6.875 C 6.578125 -7.925781 6.023438 -8.453125 4.921875 -8.453125 L 3.28125 -8.453125 L 3.28125 -5.3125 Z M 4.921875 -5.3125 "></path></g></g></g><g fill="#100d28" fill-opacity="1"><g transform="translate(228.094225, 285.521458)"><g><path d="M 5.203125 0 L 2.9375 0 L 0.140625 -7.5625 L 2.140625 -7.5625 L 4.015625 -2.171875 L 4.171875 -2.171875 L 6.0625 -7.5625 L 8 -7.5625 Z M 5.203125 0 "></path></g></g></g><g fill="#100d28" fill-opacity="1"><g transform="translate(241.84992, 285.521458)"><g><path d="M 5.21875 -1.796875 L 5.71875 -0.390625 C 5.507812 -0.222656 5.25 -0.09375 4.9375 0 C 4.625 0.09375 4.269531 0.140625 3.875 0.140625 C 3.0625 0.140625 2.441406 -0.078125 2.015625 -0.515625 C 1.585938 -0.960938 1.375 -1.613281 1.375 -2.46875 L 1.375 -6.0625 L 0.21875 -6.0625 L 0.21875 -7.578125 L 1.375 -7.578125 L 1.375 -9.046875 L 3.28125 -9.359375 L 3.28125 -7.578125 L 5.421875 -7.578125 L 5.421875 -6.0625 L 3.28125 -6.0625 L 3.28125 -2.609375 C 3.28125 -2.234375 3.359375 -1.957031 3.515625 -1.78125 C 3.671875 -1.613281 3.894531 -1.53125 4.1875 -1.53125 C 4.53125 -1.53125 4.828125 -1.617188 5.078125 -1.796875 Z M 5.21875 -1.796875 "></path></g></g></g><g fill="#100d28" fill-opacity="1"><g transform="translate(253.349065, 285.521458)"><g><path d="M 1.9375 0.0625 C 1.695312 0.0625 1.484375 0.015625 1.296875 -0.078125 C 1.109375 -0.179688 0.960938 -0.316406 0.859375 -0.484375 C 0.765625 -0.660156 0.71875 -0.859375 0.71875 -1.078125 C 0.71875 -1.296875 0.765625 -1.492188 0.859375 -1.671875 C 0.960938 -1.847656 1.109375 -1.984375 1.296875 -2.078125 C 1.484375 -2.179688 1.695312 -2.234375 1.9375 -2.234375 C 2.175781 -2.234375 2.390625 -2.179688 2.578125 -2.078125 C 2.765625 -1.984375 2.90625 -1.847656 3 -1.671875 C 3.101562 -1.503906 3.15625 -1.3125 3.15625 -1.09375 C 3.15625 -0.757812 3.039062 -0.484375 2.8125 -0.265625 C 2.59375 -0.046875 2.300781 0.0625 1.9375 0.0625 Z M 1.9375 0.0625 "></path></g></g></g><g fill="#100d28" fill-opacity="1"><g transform="translate(262.84543, 285.521458)"><g><path d="M 3.28125 -10.03125 L 3.28125 -1.65625 L 7.796875 -1.65625 L 7.796875 0 L 1.296875 0 L 1.296875 -10.03125 Z M 3.28125 -10.03125 "></path></g></g></g><g fill="#100d28" fill-opacity="1"><g transform="translate(276.587407, 285.521458)"><g><path d="M 5.21875 -1.796875 L 5.71875 -0.390625 C 5.507812 -0.222656 5.25 -0.09375 4.9375 0 C 4.625 0.09375 4.269531 0.140625 3.875 0.140625 C 3.0625 0.140625 2.441406 -0.078125 2.015625 -0.515625 C 1.585938 -0.960938 1.375 -1.613281 1.375 -2.46875 L 1.375 -6.0625 L 0.21875 -6.0625 L 0.21875 -7.578125 L 1.375 -7.578125 L 1.375 -9.046875 L 3.28125 -9.359375 L 3.28125 -7.578125 L 5.421875 -7.578125 L 5.421875 -6.0625 L 3.28125 -6.0625 L 3.28125 -2.609375 C 3.28125 -2.234375 3.359375 -1.957031 3.515625 -1.78125 C 3.671875 -1.613281 3.894531 -1.53125 4.1875 -1.53125 C 4.53125 -1.53125 4.828125 -1.617188 5.078125 -1.796875 Z M 5.21875 -1.796875 "></path></g></g></g><g fill="#100d28" fill-opacity="1"><g transform="translate(288.086553, 285.521458)"><g><path d="M 3.734375 0.140625 C 3.140625 0.140625 2.609375 -0.00390625 2.140625 -0.296875 C 1.679688 -0.585938 1.320312 -1.023438 1.0625 -1.609375 C 0.800781 -2.191406 0.671875 -2.914062 0.671875 -3.78125 C 0.671875 -4.644531 0.804688 -5.367188 1.078125 -5.953125 C 1.347656 -6.546875 1.71875 -6.984375 2.1875 -7.265625 C 2.664062 -7.554688 3.210938 -7.703125 3.828125 -7.703125 C 4.304688 -7.703125 4.71875 -7.617188 5.0625 -7.453125 C 5.40625 -7.296875 5.695312 -7.046875 5.9375 -6.703125 L 6.078125 -6.75 L 6.078125 -10.609375 L 7.984375 -10.609375 L 7.984375 0 L 6.078125 0 L 6.078125 -0.984375 L 5.9375 -1.015625 C 5.726562 -0.648438 5.4375 -0.363281 5.0625 -0.15625 C 4.695312 0.0390625 4.253906 0.140625 3.734375 0.140625 Z M 4.359375 -1.46875 C 4.890625 -1.46875 5.3125 -1.65625 5.625 -2.03125 C 5.9375 -2.414062 6.09375 -3 6.09375 -3.78125 C 6.09375 -4.550781 5.9375 -5.128906 5.625 -5.515625 C 5.3125 -5.898438 4.890625 -6.09375 4.359375 -6.09375 C 3.796875 -6.09375 3.367188 -5.90625 3.078125 -5.53125 C 2.785156 -5.164062 2.640625 -4.582031 2.640625 -3.78125 C 2.640625 -2.976562 2.785156 -2.390625 3.078125 -2.015625 C 3.367188 -1.648438 3.796875 -1.46875 4.359375 -1.46875 Z M 4.359375 -1.46875 "></path></g></g></g><g fill="#100d28" fill-opacity="1"><g transform="translate(302.77505, 285.521458)"><g><path d="M 1.9375 0.0625 C 1.695312 0.0625 1.484375 0.015625 1.296875 -0.078125 C 1.109375 -0.179688 0.960938 -0.316406 0.859375 -0.484375 C 0.765625 -0.660156 0.71875 -0.859375 0.71875 -1.078125 C 0.71875 -1.296875 0.765625 -1.492188 0.859375 -1.671875 C 0.960938 -1.847656 1.109375 -1.984375 1.296875 -2.078125 C 1.484375 -2.179688 1.695312 -2.234375 1.9375 -2.234375 C 2.175781 -2.234375 2.390625 -2.179688 2.578125 -2.078125 C 2.765625 -1.984375 2.90625 -1.847656 3 -1.671875 C 3.101562 -1.503906 3.15625 -1.3125 3.15625 -1.09375 C 3.15625 -0.757812 3.039062 -0.484375 2.8125 -0.265625 C 2.59375 -0.046875 2.300781 0.0625 1.9375 0.0625 Z M 1.9375 0.0625 "></path></g></g></g></svg>